<?xml version="1.0" standalone="no"?> <!DOCTYPE svg PUBLIC "-//W3C//DTD SVG 1.0//EN" "http://www.w3.org/TR/2001/REC-SVG-20010904/DTD/svg10.dtd" > <svg xmlns="http://www.w3.org/2000/svg" width="100%" height="100%">
<defs >
<font id="bickhamscriptprofreefontbyyoursourced4txzli" horiz-adv-x="485" ><font-face
    font-family="Bickham Script Pro Regular"
    units-per-em="2048"
    panose-1="3 3 4 2 4 7 7 13 13 6"
    ascent="1392"
    descent="-656"
    alphabetic="0" />
<missing-glyph horiz-adv-x="1024" d="M0 0V1434H1024V0H0ZM512 809L860 1331H164L512 809ZM573 717L922 195V1239L573 717ZM164 102H860L512 625L164 102ZM102 1239V195L451 717L102 1239Z" />
<glyph unicode=" " glyph-name="space" horiz-adv-x="313" />
<glyph unicode="!" glyph-name="exclam" horiz-adv-x="489" d="M625 694Q649 694 649 685Q649 673 610 623Q540 530 403 379T188 152Q170 133 162 137Q153 141 174 170Q381 443 502 629Q530 669 558 681T625 694ZM137 90Q162 90 168 75T158 37T110 -2T61 -18Q53
-7 53 13T59 51Q75 90 137 90Z" />
<glyph unicode="&quot;" glyph-name="quotedbl" horiz-adv-x="389" d="M383 696Q412 696 416 684T395 649Q311 574 236 514Q217 500 213 504Q209 506 221 526L303 657Q312 673 334 684T383 696ZM545 696Q575 696 579 684T557 649Q466 567 397 514Q381 501 375
504Q370 507 383 526Q398 548 427 594T467 657Q476 673 498 684T545 696Z" />
<glyph unicode="#" glyph-name="numbersign" horiz-adv-x="729" d="M504 575Q527 575 527 565Q527 552 492 510L385 383Q439 383 573 379Q576 383 622 444T690 535Q694 539 702 549T714 563T724 574T736 583T750 588T768 590Q792 590 792 580Q792 568 756 524L635
379H739Q772 379 772 371Q772 362 739 362H621L508 225Q526 225 558 225T615 224T641 223Q674 223 674 215T641 207H494L313 -14Q308 -21 298 -29T281 -33Q272 -28 291 -2L444 207Q409 206 343 205T242 203L51 -29Q44 -38 33 -44T16 -47Q9 -40 27 -16L190 203H106Q59
203 57 215Q57 229 100 229H209Q218 241 253 287T307 358H205Q158 358 156 369Q155 375 162 379T178 384T199 385Q222 385 264 384T326 383L428 518Q433 524 440 533T451 547T461 558T473 568T486 573T504 575ZM369 358L262 227Q391 227 461 225Q500 280 561 360Q535
360 470 359T369 358Z" />
<glyph unicode="$" glyph-name="dollar" horiz-adv-x="501" d="M508 557L373 352Q373 351 380 329T391 294T398 259T402 216T393 176Q371 112 310 75T188 37Q170 37 162 39Q123 -20 109 -43Q96 -60 86 -57T90 -31L137 43Q91 55 68 86T51 158Q57 189 76 204T121
217Q139 215 148 201T154 168Q149 151 134 134T117 106Q113 76 152 63L303 295Q289 332 287 373T295 446Q316 505 370 539T487 575Q502 596 512 612Q533 644 541 652T559 657Q570 654 541 608L518 573Q556 565 576 540T586 479Q578 457 562 445T528 434Q507 437
501 453T504 485Q509 497 520 512T532 535Q529 552 508 557ZM360 383L477 559Q440 559 406 536T358 477Q344 433 360 383ZM315 266L174 57Q180 55 195 55Q234 55 268 78T319 137Q346 189 315 266Z" />
<glyph unicode="%" glyph-name="percent" horiz-adv-x="802" d="M492 -12Q456 -12 436 10T420 68Q429 133 498 205Q531 240 574 263T653 293Q660 295 669 295T678 291Q678 289 675 288T663 282T645 272Q611 251 551 178Q488 94 481 47Q475 12 502 6Q553 0 618
94Q681 179 696 236Q706 266 696 281Q694 284 687 288Q684 290 684 291Q684 293 688 294T700 295T713 293Q734 285 743 264T745 215Q733 153 662 76Q623 38 575 13T492 -12ZM627 512Q566 479 506 473Q458 468 416 485Q425 464 418 430Q402 367 334 299Q298 260
250 235T166 209T111 231T94 289Q102 355 172 428Q203 462 247 485T328 516Q350 520 350 514Q350 512 346 511T334 505T317 496Q279 468 225 399Q164 316 156 270Q149 232 176 229Q227 223 293 317Q348 391 371 459Q381 488 371 502Q369 506 362 510Q357 512 358
514Q360 517 369 518T387 516Q399 512 403 508Q448 484 506 489Q587 500 670 559Q688 579 697 588T723 605T758 614Q774 614 773 608Q772 598 723 549Q442 275 143 -70Q120 -93 111 -86Q105 -81 125 -55Q375 242 627 512Z" />
<glyph unicode="&amp;" glyph-name="ampersand" horiz-adv-x="925" d="M1036 612Q1081 612 1103 589T1118 528Q1112 499 1089 477T1040 461Q1011 467 1020 524Q1027 564 991 567Q959 572 907 541T766 430Q728 396 644 315T518 195Q532 174 543 157T567 116T588
69T601 18T607 -38T600 -98Q576 -209 479 -282T264 -356Q215 -356 184 -338T141 -299Q127 -271 137 -264Q140 -264 141 -267T145 -277T154 -291Q187 -332 264 -332Q345 -332 410 -281T500 -147Q539 -7 463 145Q274 -10 145 -10Q108 -10 86 13T72 80Q82 127 126
169T246 256Q270 270 314 293T377 328Q357 401 369 451Q381 508 423 554T522 600Q555 600 570 572T571 500Q540 417 430 342Q436 326 445 309T462 279T484 245T506 213Q548 252 630 334T752 453Q837 530 906 571T1036 612ZM518 567Q486 567 458 533T420 453Q411
404 426 358Q523 429 549 502Q558 530 550 548T518 567ZM215 45Q253 45 318 79T451 166Q403 249 383 311Q286 245 262 225Q179 157 168 98Q162 71 177 58T215 45Z" />
<glyph unicode="&apos;" glyph-name="quotesingle" horiz-adv-x="223" d="M385 696Q411 696 415 684T395 649Q292 560 233 514Q216 501 213 504Q205 507 219 526L303 657Q325 696 385 696Z" />
<glyph unicode="(" glyph-name="parenleft" horiz-adv-x="489" d="M147 -188Q140 -188 137 -170Q129 -131 128 -72T135 79T185 279T297 485Q368 585 451 664T605 791T754 873T884 922T987 946Q1006 950 1006 944Q1006 940 987 934Q924 916 856 884T704 798T532
659T367 467Q301 372 255 270T188 83T159 -63T152 -170Q152 -188 147 -188Z" />
<glyph unicode=")" glyph-name="parenright" horiz-adv-x="489" d="M-219 -176Q-219 -174 -201 -168Q-139 -147 -74 -112T68 -20T222 123T369 315Q410 378 442 446T491 572T521 688T536 790T541 874T539 938Q539 954 541 954Q548 954 551 940Q565 889 571 830T574
684T537 495T440 295Q361 173 268 80T86 -64T-71 -142T-201 -180Q-219 -184 -219 -176Z" />
<glyph unicode="*" glyph-name="asterisk" horiz-adv-x="473" d="M618 696Q618 688 584 688Q512 688 467 690Q495 629 506 592Q514 563 508 561Q503 559 489 575Q450 628 424 674Q341 595 313 571Q286 547 281 555Q274 561 295 588Q371 679 387 696Q360 701 289
717Q265 723 263 730Q262 732 262 735Q264 745 295 745Q334 745 389 739Q366 787 350 831Q341 859 350 866Q359 872 377 846Q409 801 436 752Q511 825 541 848Q571 872 578 868Q583 863 563 834Q528 785 479 729Q581 713 588 711Q618 706 618 696Z" />
<glyph unicode="+" glyph-name="plus" horiz-adv-x="729" d="M588 512Q598 512 604 512T614 509T619 502T617 490T607 472T588 446L442 274Q576 271 674 268Q707 268 707 258T674 248Q553 245 414 242L203 0Q200 -3 196 -7T188 -15T181 -21T175 -24T170 -23Q162
-17 180 8L352 240Q321 240 250 239T137 238Q114 238 103 240T90 247T90 258Q98 285 133 285Q169 284 210 283T301 279T379 276L512 455Q515 458 522 467T531 480T540 490T551 499T561 506T573 511T588 512Z" />
<glyph unicode="," glyph-name="comma" horiz-adv-x="215" d="M139 72Q139 56 123 37Q57 -45 -55 -113Q-79 -126 -82 -123Q-85 -119 -76 -109Q-70 -103 -66 -98Q-9 -38 10 2Q15 12 14 25T14 47Q21 67 48 78T109 90Q139 90 139 72Z" />
<glyph unicode="-" glyph-name="hyphen" horiz-adv-x="501" d="M307 240Q354 240 377 208T399 133Q399 123 395 123T387 129Q367 162 305 162Q280 162 234 153T152 143Q133 143 111 151T80 170Q77 177 80 180Q84 184 88 180Q104 172 121 172Q158 172 223 211Q266
240 307 240Z" />
<glyph unicode="." glyph-name="period" horiz-adv-x="215" d="M102 90Q128 90 134 75T123 37Q106 14 76 -2T27 -18Q19 -8 19 12T25 51Q38 90 102 90Z" />
<glyph unicode="/" glyph-name="slash" horiz-adv-x="489" d="M760 778Q784 778 784 769Q785 757 737 707L-68 -162Q-87 -181 -98 -174Q-103 -169 -82 -141L657 717Q686 750 708 764T760 778Z" />
<glyph unicode="0" glyph-name="zero" horiz-adv-x="544" d="M133 -18H131Q72 -18 41 16T16 115Q27 239 154 375Q207 436 283 480T422 539Q437 542 451 541T465 535Q465 533 461 533T445 528T422 516Q342 462 242 334Q122 189 102 80Q87 7 139 4Q183 0 237 44T358
172Q471 316 508 446Q522 496 502 516Q495 523 483 529Q479 531 478 532T477 535Q478 540 494 539T524 532Q555 519 570 480T571 389Q541 273 418 143Q350 69 272 26T133 -18Z" />
<glyph unicode="1" glyph-name="one" horiz-adv-x="382" d="M365 455Q294 408 229 375Q208 364 184 357T147 350T131 352Q130 355 131 356T145 362Q183 379 229 403Q353 469 408 506Q469 545 492 545Q518 545 477 500Q320 311 156 80Q116 25 97 12T8 -14Q-24 -19
-24 -8Q-23 5 18 59Q97 163 218 301T365 455Z" />
<glyph unicode="2" glyph-name="two" horiz-adv-x="509" d="M66 82Q98 90 135 88Q159 86 203 72T264 57Q303 57 335 73T410 135Q422 147 426 145Q434 139 424 129Q317 -12 217 -12Q160 -12 102 16Q67 35 18 35Q-16 35 -47 14Q-52 11 -62 5T-80 -6T-92 -12Q-98
-14 -98 -8Q-98 -5 -96 0Q-92 11 -61 31Q-47 40 21 75T129 135Q238 199 326 280T434 426Q445 461 430 483T383 506Q309 506 242 453Q181 404 170 352Q163 316 178 300T223 291Q236 294 238 291Q239 288 234 285T223 279Q203 269 176 272Q117 281 129 340Q143 401
229 469Q330 545 430 545Q497 545 524 509T535 414Q516 354 459 302T307 193Q205 133 66 82Z" />
<glyph unicode="3" glyph-name="three" horiz-adv-x="516" d="M330 305Q375 302 403 281Q447 246 424 176Q398 95 287 35Q191 -18 86 -18Q26 -16 -11 9T-41 82Q-35 119 -6 142T61 166Q86 166 100 152T109 119T70 76Q40 58 35 37Q31 18 47 8T98 0Q131 1 165 15T242
71T319 180Q338 214 337 248T311 285Q289 288 258 270Q231 256 229 260Q226 266 236 276T264 293Q352 329 402 376T453 469Q453 486 440 497T403 508Q348 508 305 477Q261 446 246 401Q237 374 240 358Q241 354 244 349Q246 344 244 342Q240 340 234 342T223 352Q210
373 219 406Q234 457 303 500Q381 545 467 545Q508 545 529 527T551 481Q551 418 473 369Q413 332 330 305Z" />
<glyph unicode="4" glyph-name="four" horiz-adv-x="559" d="M651 547H653Q666 546 666 542T655 524Q515 350 342 106Q405 101 422 98Q438 95 446 89T451 76Q450 72 434 74Q422 75 414 76Q352 80 328 80Q241 -29 166 -137Q144 -167 122 -179T63 -199Q25 -206 23
-197Q19 -184 59 -127L213 80Q124 80 53 74Q7 71 -31 63Q-57 58 -57 68Q-60 79 -27 102Q75 184 231 293L563 512Q619 547 651 547ZM526 455L524 457Q400 385 244 272Q80 154 12 98V96Q85 106 233 106Q295 189 390 303T526 455Z" />
<glyph unicode="5" glyph-name="five" horiz-adv-x="528" d="M436 559H438Q441 559 455 545Q476 523 512 510Q541 500 582 500Q616 500 635 514Q649 523 651 522Q658 518 645 502Q630 479 594 463Q541 439 471 442Q415 445 375 473Q311 391 223 307L225 305Q277
328 326 328Q385 328 420 295T440 197Q420 103 316 43T92 -18Q29 -18 -8 6T-37 82Q-31 115 -5 138T51 162Q73 162 85 150T96 117Q94 94 70 74Q43 51 41 35T53 10T92 0Q175 0 249 61T344 217Q353 258 339 281T293 305Q257 305 227 291Q213 284 188 264Q167 247 158
252Q141 265 178 293Q219 324 291 403L414 545Q424 559 436 559Z" />
<glyph unicode="6" glyph-name="six" horiz-adv-x="534" d="M39 88V90Q39 161 80 245T197 406Q302 514 447 585T696 655Q742 655 775 637T821 590Q830 568 821 563Q816 561 809 574Q808 577 807 578Q774 631 698 631Q534 631 279 358Q207 282 155 200T102 57Q102
-2 154 -2Q194 -1 246 44T346 158Q392 223 404 275T383 336Q336 343 279 301Q266 293 262 297Q259 303 276 317Q302 338 338 351T406 360Q473 351 480 277T428 123Q378 55 301 18T156 -20Q101 -20 70 11T39 88Z" />
<glyph unicode="7" glyph-name="seven" horiz-adv-x="440" d="M524 487Q470 466 396 451T264 436Q230 436 205 453T184 500Q188 535 236 557Q260 569 283 569L287 567Q288 565 284 559Q281 554 279 551Q272 536 274 523T299 500T362 489Q458 486 555 512Q563 516
574 517T588 514Q589 508 583 505T565 500Q454 406 307 250T47 -41Q33 -55 -61 -70Q-113 -77 -116 -70T-80 -25Q79 129 244 269T524 487Z" />
<glyph unicode="8" glyph-name="eight" horiz-adv-x="501" d="M489 623H487Q446 623 409 594T362 524Q354 485 361 449T391 358Q424 270 422 219Q416 122 323 49T125 -18Q64 -13 31 24T12 119Q28 182 92 236T240 322Q285 339 287 330Q288 327 284 324T269 316T250
305Q143 234 113 131Q96 77 112 46T170 12Q240 6 289 63T338 190Q338 235 305 315Q278 385 281 449Q285 528 364 591T528 653Q586 652 613 616T629 528Q610 444 461 373Q409 348 406 358Q405 362 409 366T423 375T436 383Q528 441 549 528Q558 568 542 595T489
623Z" />
<glyph unicode="9" glyph-name="nine" horiz-adv-x="546" d="M-176 -188H-174Q-45 -188 98 -72Q156 -27 229 52T348 197Q420 300 452 361T489 465Q497 514 459 520Q421 529 363 487T250 369Q207 307 200 257T225 197Q264 186 326 231Q330 234 336 239Q351 252
354 248Q356 247 354 242T344 229T328 213Q262 161 201 172Q135 183 128 254T178 406Q232 480 320 515T469 539Q508 531 529 503T553 436Q556 384 525 307T436 156Q320 2 149 -105T-172 -213Q-215 -213 -248 -195T-291 -150Q-299 -123 -289 -123Q-285 -122 -282
-130Q-280 -135 -279 -137Q-266 -160 -238 -174T-176 -188Z" />
<glyph unicode=":" glyph-name="colon" horiz-adv-x="333" d="M123 90H125Q150 90 155 75T143 37Q126 14 96 -2T47 -18Q30 6 45 51Q58 90 123 90ZM221 293H223Q248 293 254 278T242 240Q224 217 194 201T145 184Q138 194 138 214T145 254Q161 293 221 293Z" />
<glyph unicode=";" glyph-name="semicolon" horiz-adv-x="333" d="M162 72V70Q162 55 145 37Q79 -45 -33 -113Q-56 -126 -59 -123Q-62 -118 -49 -105Q-45 -100 -43 -98Q12 -41 33 2Q38 12 37 25T37 47Q43 67 69 78T131 90Q162 90 162 72ZM219 293H221Q247 293
253 278T242 240Q224 217 194 201T145 184Q138 194 138 214T145 254Q161 293 219 293Z" />
<glyph unicode="&lt;" glyph-name="less" horiz-adv-x="577" d="M80 264V266Q80 277 127 293L606 469Q633 480 633 469Q633 461 602 449L172 260L459 82Q478 72 473 63Q466 54 449 63L106 240Q80 253 80 264Z" />
<glyph unicode="=" glyph-name="equal" horiz-adv-x="677" d="M702 330V328Q702 317 672 317Q496 312 164 309Q144 309 139 315T137 334Q149 358 184 358Q451 350 670 340Q702 340 702 330ZM627 199V197Q627 186 596 186Q517 184 348 182T88 178Q52 178 63 205Q75
230 109 227Q188 224 353 219T594 211Q627 211 627 199Z" />
<glyph unicode="&gt;" glyph-name="greater" horiz-adv-x="577" d="M543 266V264Q543 256 496 238L18 59Q-5 51 -8 59Q-9 64 -2 70T20 82L451 270Q405 298 335 341T217 413T164 446Q147 461 152 467Q159 477 174 467L518 291Q543 280 543 266Z" />
<glyph unicode="?" glyph-name="question" horiz-adv-x="489" d="M524 690H526Q584 690 612 651T623 555Q603 489 543 439T383 342Q300 302 256 274Q194 239 184 209Q181 204 176 186T163 158T145 147Q136 149 139 167T150 199Q181 263 262 311Q373 378 437 437T526
563Q540 598 529 623T483 651Q410 657 340 600Q294 566 270 516T262 436Q265 431 269 427T277 422T279 418Q277 415 270 415T256 416Q229 421 222 447T223 494Q239 551 328 616Q426 690 524 690ZM137 90H139Q163 90 169 75T158 37T110 -2T61 -18Q53 -7 53 13T59
51Q75 90 137 90Z" />
<glyph unicode="@" glyph-name="at" horiz-adv-x="1013" d="M651 541H653Q757 541 814 492T866 371Q863 322 825 266Q834 244 834 227Q834 164 793 113Q737 48 651 10T457 -25Q376 -23 316 3T226 72T188 165T197 270T256 371Q320 444 425 492T651 541ZM651 524H649Q553
524 461 471T319 350Q273 291 256 229T253 116T321 30T461 -6Q560 -9 641 28T774 125Q817 178 817 225Q817 242 815 248Q800 228 797 225Q712 135 631 135Q561 135 555 180Q552 203 571 229H569Q473 137 412 137Q347 137 352 195Q355 224 380 261T455 334Q493 361
546 380T631 393Q651 390 660 376T664 346H666Q706 392 735 395Q757 395 761 390T754 373Q745 361 722 333T686 289T659 253T637 219Q622 194 628 178T659 162Q686 162 721 185T780 238Q793 252 805 276Q801 288 791 301Q782 311 784 315Q787 321 797 311T813 293Q830
333 834 373Q836 436 789 480T651 524ZM618 377H616Q584 377 494 291Q420 216 420 180Q420 166 436 166Q472 166 547 231Q581 262 611 299T645 352Q646 364 639 370T618 377Z" />
<glyph unicode="A" glyph-name="A" horiz-adv-x="1413" d="M43 115V117Q43 169 75 204T150 242Q185 245 205 228T225 180Q225 143 178 111Q141 83 141 59Q141 25 194 5T342 -8Q535 9 768 170Q728 206 692 269T655 401Q657 495 724 556T899 616Q974 613 1031 567T1112
469Q1136 493 1208 559Q1304 645 1374 701T1516 795Q1654 872 1761 872Q1808 872 1833 852Q1842 844 1846 835T1847 823Q1845 822 1825 838Q1809 850 1780 850Q1742 850 1714 827Q1682 801 1634 745T1548 635Q1356 370 1165 57Q1214 60 1280 92Q1342 125 1409 186Q1422
200 1430 193Q1434 187 1413 166Q1348 106 1286 74Q1223 41 1155 37Q1114 -6 1075 -14Q1048 -20 1035 -16T1022 -2T1026 14Q1030 22 1035 32T1042 45Q986 51 909 82Q833 112 788 154Q551 -18 336 -35Q210 -44 127 -5T43 115ZM1143 203Q1183 266 1262 378T1391 555Q1558
775 1720 852V854Q1646 848 1526 782Q1421 724 1251 571L1122 451Q1144 392 1149 317Q1152 260 1143 203ZM901 586H899Q823 586 779 531T731 397Q728 339 750 283T799 195Q870 251 948 322L1094 453Q1061 513 1011 549T901 586ZM813 176Q844 141 920 104Q992 73
1053 66Q1062 82 1086 120T1114 164Q1134 205 1126 315Q1120 393 1104 434L961 303L813 176Z" />
<glyph unicode="B" glyph-name="B" horiz-adv-x="1310" d="M821 -18Q752 -18 704 5T655 82Q655 129 694 163T782 197Q810 197 828 184T846 147Q846 110 793 88Q748 71 743 47Q739 23 763 11T821 -2Q924 -2 1017 93T1116 311Q1120 378 1078 411T997 440Q961 434
938 434Q886 434 889 451Q891 467 944 467Q949 467 1006 461Q1073 470 1132 524T1208 647Q1234 749 1163 793Q1158 787 1141 771T1116 745Q1094 723 1073 700T1022 639T978 583T920 507T862 430Q516 -41 213 -41Q-4 -41 -4 115Q-4 212 79 335T334 584Q501 706 697
770T1063 834Q1099 834 1143 827Q1240 898 1339 938Q1442 981 1542 981Q1650 981 1686 926Q1695 910 1690 907Q1687 905 1681 913Q1678 916 1677 918Q1637 965 1544 965Q1450 965 1352 920Q1276 886 1190 815Q1325 763 1303 647Q1290 570 1209 518T1042 453V451Q1133
436 1179 388T1223 274Q1216 148 1098 65T821 -18ZM78 113Q78 51 112 14T211 -23Q342 -23 474 112Q534 172 661 340Q676 360 686 373Q778 493 880 598T1065 770Q1071 775 1116 809Q1089 815 1051 815Q895 815 710 752T369 569Q216 451 147 329T78 113Z" />
<glyph unicode="C" glyph-name="C" horiz-adv-x="798" d="M545 954Q619 954 687 920T797 825Q846 841 905 844Q956 847 1000 841T1080 817T1133 768T1143 690Q1132 630 1066 586T916 522T750 502Q659 502 576 523T440 584Q323 478 249 351T174 125Q174 40 221
0T350 -41Q488 -41 647 66Q718 114 774 168Q812 204 819 197Q824 192 803 170Q711 86 655 47Q501 -61 346 -70Q213 -75 134 -24T51 137Q47 263 145 397T387 635Q336 700 336 764Q336 848 397 901T545 954ZM754 522Q868 522 959 571T1067 694Q1082 762 1040 796T913
829Q853 829 805 809Q833 758 840 696Q846 649 834 645Q832 646 831 649T829 664T825 686Q812 751 776 799Q697 769 611 714T457 598Q559 522 754 522ZM528 928Q459 928 411 882T362 762Q362 702 403 647Q578 764 764 817Q716 870 654 899T528 928Z" />
<glyph unicode="D" glyph-name="D" horiz-adv-x="1378" d="M729 557V559Q729 601 704 626T639 653Q601 654 565 639T506 600Q495 589 487 578T475 562T469 559Q468 561 468 566T476 583T494 606Q516 633 557 654T645 672Q694 670 727 639T760 555Q760 498 727
440T637 334Q499 220 322 229Q207 236 145 286T84 430Q86 549 190 650T457 808T793 864Q927 864 1049 830T1247 727Q1323 775 1380 799Q1484 840 1581 840Q1650 840 1696 809Q1706 802 1711 792T1714 778Q1711 777 1709 779T1701 787T1686 799Q1649 821 1581 821Q1489
821 1391 778Q1312 744 1268 705Q1328 639 1349 555T1355 387T1290 231Q1209 111 1048 48T717 -16Q576 -16 436 -6Q322 -18 233 -18Q224 -18 207 -18Q124 -18 85 -18T-3 -14T-71 -3T-90 18Q-85 68 207 57Q319 54 481 27Q522 39 561 61T631 108T697 170T757 237T818
312T879 385Q956 477 1051 568T1217 707Q1151 774 1032 810T793 846Q634 846 491 787T260 627T170 414Q170 344 209 299T324 250Q484 242 612 356Q666 405 697 459T729 557ZM512 23Q536 17 592 11T684 4Q1008 4 1204 274Q1277 377 1287 491T1239 684Q1197 644 1104
514T987 352Q872 213 761 139T512 23Z" />
<glyph unicode="E" glyph-name="E" horiz-adv-x="798" d="M461 539Q461 598 506 659Q418 726 418 811Q418 872 460 909T569 950Q632 953 702 924T819 838Q902 853 971 850Q1071 846 1126 809T1182 721Q1182 653 1090 604T874 555Q702 555 588 612Q568 584 557
551Q545 515 551 485Q607 495 651 492Q767 486 762 440Q759 421 726 411T649 401Q599 401 552 416T485 457Q388 420 299 334Q247 285 214 226T178 109Q175 38 222 -1T346 -41Q488 -41 647 66Q699 101 793 184Q813 203 819 197Q826 190 801 168Q715 88 655 47Q501
-61 346 -70Q211 -76 132 -29T53 113Q51 226 167 326T475 471Q461 493 461 539ZM870 575Q977 575 1054 615T1133 721Q1136 763 1099 796T977 834Q911 834 838 809Q858 767 864 719Q870 666 860 666Q858 666 858 669T855 683T850 707Q839 749 805 797Q730 760 655
692Q627 668 598 629Q706 575 870 575ZM780 829Q742 877 682 906T565 932Q510 929 473 898T436 813Q436 745 518 676Q534 699 561 721Q647 795 780 829ZM555 471Q561 448 589 435T651 420Q682 418 703 425T725 446Q725 471 651 475Q608 479 555 471Z" />
<glyph unicode="F" glyph-name="F" horiz-adv-x="1118" d="M711 821Q611 821 530 799T390 727T313 602Q299 535 329 471T449 369Q457 366 464 364T474 360T475 356Q472 348 436 358Q348 389 307 460T276 616Q292 733 413 809T721 885Q844 885 1069 823Q1098 815
1169 796T1278 766Q1321 790 1383 806T1503 823Q1560 823 1595 807T1630 760Q1629 734 1597 718T1513 702Q1426 702 1286 723Q1256 702 1208 653T1124 561L963 352Q1075 347 1137 369Q1138 370 1146 380T1157 394T1169 407T1184 421T1199 431T1215 438T1231 438Q1257
432 1233 404Q1224 394 1190 362Q1137 318 1096 268Q1091 263 1086 256T1079 247T1075 246Q1065 249 1083 287Q1097 316 1120 344Q1068 330 944 330Q943 328 897 274Q610 -37 287 -37Q240 -37 199 -30T122 -6T64 38T41 106Q39 147 66 178T139 209Q167 209 185 190T201
145Q197 123 170 94Q143 67 143 47Q144 16 186 -1T283 -18Q394 -18 501 35T692 180Q764 260 817 332Q729 332 705 330Q689 329 670 326Q659 324 655 325T651 332Q654 345 721 350Q743 352 831 352Q869 403 936 479Q1006 555 1093 629T1233 733Q1208 738 1149 752T1057
774Q854 821 711 821ZM1501 805Q1405 805 1323 754Q1442 721 1522 721Q1559 721 1584 731T1610 762Q1612 782 1582 793T1501 805Z" />
<glyph unicode="G" glyph-name="G" horiz-adv-x="919" d="M1182 752Q1182 671 1110 590T928 451Q842 407 738 385T541 362Q441 362 356 391Q259 250 248 131Q243 77 269 43T342 8Q419 7 500 60T678 215Q742 279 776 279Q805 279 811 272T803 246Q768 204 700 111L580
-49V-51Q676 0 774 74Q850 130 918 188Q940 209 946 203Q953 196 920 166Q870 120 797 68Q699 -7 557 -84Q479 -196 438 -250T303 -414Q182 -555 43 -650T-180 -745Q-219 -745 -244 -725T-266 -659Q-255 -531 51 -336Q143 -279 253 -218T444 -106L614 129Q550 65
478 25T340 -20Q248 -29 191 8T127 127Q122 192 156 276T256 440Q205 474 174 524T143 635Q143 752 237 821T463 891Q621 891 717 791Q897 870 1020 870Q1061 870 1095 861T1155 824T1182 752ZM1157 756Q1157 807 1117 827T1020 848Q897 848 741 758Q776 707 788
647Q801 588 788 588Q786 587 785 589T783 595T781 605T778 620T772 639Q754 696 713 741Q600 666 500 565Q427 492 369 406Q447 381 539 381Q724 381 903 477Q1003 530 1080 612T1157 756ZM449 866Q333 866 249 803T164 635Q164 527 268 455Q361 561 451 629Q567
718 682 774Q581 866 449 866ZM422 -139Q369 -174 260 -235T49 -362Q-49 -425 -131 -512T-213 -664Q-213 -711 -166 -717Q-116 -723 -39 -676Q14 -643 85 -572T223 -412Q375 -211 422 -139Z" />
<glyph unicode="H" glyph-name="H" horiz-adv-x="1331" d="M1081 784Q1028 765 916 763T643 768Q521 772 422 743T260 647T197 481Q197 424 236 366T346 285Q352 283 361 281Q368 280 370 279T371 274Q370 270 356 270T332 272Q255 295 207 354T156 485Q151 632
271 724T616 811Q654 810 739 804T889 794T1016 791T1102 807Q1105 809 1113 814T1125 820T1135 825T1145 830T1154 833T1162 834T1169 831Q1173 829 1173 827T1171 821T1165 814T1155 806T1143 795Q1058 711 995 633L852 446H1145Q1221 535 1317 625Q1384 688
1456 742T1575 821Q1685 883 1780 883Q1832 883 1865 863T1909 817Q1919 790 1907 786Q1905 785 1904 787T1901 794T1896 805Q1868 862 1782 862Q1695 862 1595 793Q1518 736 1409 618Q1323 526 1266 446Q1402 441 1430 438Q1477 432 1477 428Q1477 422 1432 422Q1292
422 1245 420Q1183 341 1143 287T1063 163T1022 57Q1022 23 1061 23Q1118 23 1206 86Q1220 96 1323 182Q1341 199 1348 193Q1353 187 1335 170Q1281 118 1217 70Q1106 -12 1026 -12Q981 -12 955 11T928 78Q928 184 1122 420L834 418Q782 355 749 316T665 222T577
136T487 67T387 10T281 -23T162 -37Q78 -37 18 2T-43 123Q-43 166 -12 198T63 229Q94 227 113 207T129 154Q126 119 96 92Q70 69 70 41Q73 11 103 -3T172 -18Q207 -18 243 -9T315 20T381 60T447 115T507 173T565 239T616 301T665 364T707 418Q699 418 555 414Q516
414 516 424Q518 432 575 436Q613 440 727 444Q808 542 913 642T1081 784Z" />
<glyph unicode="I" glyph-name="I" horiz-adv-x="901" d="M1255 846Q1231 840 1173 826T1085 805Q889 754 784 692Q733 662 692 616T651 526Q651 501 667 487T707 473Q738 473 762 492Q765 494 770 498T777 502T782 502Q787 497 772 481Q744 453 698 453Q654 453
628 477T602 539Q602 594 650 643T780 729Q886 782 1081 825Q1107 831 1151 840T1223 857T1270 872Q1300 887 1311 885Q1322 882 1320 870T1307 852Q1224 816 1116 664Q1106 650 1036 544T932 393Q759 172 584 68T213 -37Q165 -37 123 -28T43 -1T-15 49T-37 123Q-37
169 -6 207T78 246Q111 246 131 226T147 174Q144 141 109 113Q106 110 99 103T88 92T79 82T72 68T70 51Q70 22 108 3T207 -16Q288 -16 367 13T522 100T667 228T813 395Q832 418 911 518T1022 657Q1072 716 1137 769T1255 846Z" />
<glyph unicode="J" glyph-name="J" horiz-adv-x="686" d="M330 -43Q378 -25 440 10Q503 45 578 100Q638 148 682 186Q709 211 715 205Q722 198 688 168Q620 108 573 74Q546 52 500 23T430 -18Q369 -52 307 -78Q205 -204 162 -248Q56 -360 -65 -456T-297 -606Q-412
-662 -492 -662Q-516 -662 -539 -657T-584 -630T-606 -575Q-606 -512 -515 -435T-256 -276Q-90 -195 168 -98Q357 158 561 389Q678 521 877 680Q907 705 938 727T1007 774T1049 803Q1071 819 1071 821Q1071 831 1051 831Q856 836 616 711Q474 635 381 533T287 342Q287
267 344 252Q356 249 366 249T377 251T381 248Q382 245 377 242T363 237T344 236Q297 241 269 276T240 367Q240 411 260 460T321 563T435 669T604 764Q694 803 823 830T1059 850Q1072 849 1080 847T1098 838T1104 819Q1103 814 1067 784Q1029 755 944 674Q820 553
690 397L330 -43ZM150 -129Q-72 -208 -254 -299Q-402 -374 -477 -447T-547 -578Q-541 -625 -479 -629Q-411 -637 -307 -588Q-221 -545 -136 -464T51 -258Q85 -217 150 -129Z" />
<glyph unicode="K" glyph-name="K" horiz-adv-x="1241" d="M1708 752Q1708 683 1627 635T1454 594Q1412 597 1380 614Q1371 620 1374 627Q1377 630 1386 625Q1416 613 1452 610Q1536 602 1613 645T1690 752Q1690 792 1661 815T1589 838Q1569 838 1551 835T1514
822T1482 806T1449 781T1420 755T1390 721T1362 688T1332 649T1303 612Q1237 526 1155 471T993 391Q1010 380 1025 360T1044 317Q1059 262 1012 190Q1005 179 990 158T969 126T954 100T942 72T938 47Q938 33 947 23T975 12Q1021 12 1122 90Q1188 141 1217 168Q1220
170 1225 175Q1250 198 1255 193Q1262 186 1241 166Q1187 116 1128 70Q1019 -20 936 -20Q889 -20 865 1T838 59Q838 121 909 219Q917 231 933 252T959 286T975 314T983 342Q983 366 969 383Q944 371 907 371Q885 371 867 378T850 399Q853 430 915 426Q952 423 977
406Q1014 420 1049 448T1107 503T1168 577T1229 651Q1322 755 1406 805T1585 856Q1638 856 1673 829T1708 752ZM-43 123Q-43 164 -12 196T63 227Q96 225 115 206T131 154Q128 117 96 90Q70 64 70 39Q70 11 102 -4T172 -20Q212 -20 254 -7T332 28T408 82T479 145T547
217T606 288T660 356T705 412Q765 489 838 567T967 682V684Q896 637 816 616T686 594Q582 592 519 628T467 733Q471 767 493 796T541 842Q571 862 598 862T598 838Q552 794 545 731Q540 679 577 647T688 614Q782 614 892 662T1087 786Q1129 828 1141 819Q1147 809
1144 804T1126 784Q1123 781 1122 780Q1083 741 995 631Q964 593 910 517T834 416Q774 342 734 296T637 190T531 95T423 26T298 -23T162 -39Q109 -39 65 -24T-11 29T-43 123ZM905 385H907Q929 385 954 395Q940 409 911 412Q896 414 882 411T868 399Q868 385 905
385Z" />
<glyph unicode="L" glyph-name="L" horiz-adv-x="1226" d="M516 717Q516 799 597 858T817 918Q1010 918 1143 811Q1242 850 1327 850Q1414 853 1469 814T1511 707Q1502 660 1456 620T1346 554T1223 514T1112 492Q994 477 887 492Q789 349 708 266T524 113Q549
109 678 76Q822 39 889 39Q979 39 1054 72T1223 186Q1242 203 1249 201Q1256 194 1231 170Q1144 90 1099 54T998 -5T877 -29Q763 -29 655 12Q632 21 591 39T523 67T485 80Q356 -23 209 -25Q83 -28 86 23Q88 54 140 79T260 116T391 127Q439 127 487 119Q537 165
579 226T673 369T770 510Q661 533 589 587T516 717ZM897 510Q992 498 1114 514Q1180 523 1249 547T1378 619T1452 723Q1462 774 1427 805T1327 834Q1293 834 1244 819T1165 784Q1188 756 1204 715Q1213 691 1215 673T1217 647T1212 639Q1211 639 1210 645T1201
670T1182 711Q1161 746 1135 768Q1080 737 1022 672T897 510ZM535 723Q535 654 605 603T782 528Q854 618 945 694T1108 799Q976 889 807 889Q682 889 609 840T535 723ZM459 90Q395 106 342 104Q278 103 229 81T178 31Q177 12 196 4T244 -2Q292 -2 356 25T459 90Z"
/>
<glyph unicode="M" glyph-name="M" horiz-adv-x="1695" d="M174 -61H172Q109 -61 60 -50T-28 -4T-70 86Q-72 139 -36 182T53 225Q89 225 111 206T131 156Q126 118 86 86Q83 83 74 74T61 62T53 51T47 35Q41 3 80 -17T195 -37Q324 -37 510 44T862 250Q928 298 1006
365T1138 481T1289 624T1434 760Q1253 793 1028 793Q912 793 814 765T643 675T551 524Q537 453 568 390T690 295Q696 293 704 292T714 289T715 285Q711 272 676 283Q589 308 544 377T506 530Q521 677 659 760T1032 834Q1091 832 1160 824T1267 811T1375 793T1452
780Q1467 796 1491 817Q1533 856 1556 854Q1579 850 1578 839T1554 801Q1548 793 1539 783T1526 768Q1611 755 1675 758Q1807 763 1886 795Q1983 834 2023 889Q2035 903 2038 915T2042 931T2046 938Q2054 940 2057 927Q2062 908 2052 887Q2032 842 1974 784Q1763
564 1632 401Q1530 273 1472 186T1413 47Q1413 20 1440 20Q1492 20 1595 104Q1627 130 1694 188Q1712 205 1718 199Q1722 192 1700 170Q1655 128 1585 72Q1486 -8 1417 -10Q1328 -14 1325 66Q1324 117 1362 184T1477 348Q1542 433 1642 540T1817 711H1815Q1623
568 1403 377Q1176 181 1012 25Q1008 21 1001 15T991 5T983 -1T975 -5T967 -6T958 -2Q936 17 965 53Q1008 114 1172 368T1399 700H1397Q1390 694 1346 650T1267 574T1176 489T1072 393T970 306T872 229Q708 107 517 23T174 -61ZM1163 197Q1387 396 1548 526Q1728
673 1866 768V770Q1786 741 1669 737Q1593 737 1511 748Q1468 686 1343 478T1163 197Z" />
<glyph unicode="N" glyph-name="N" horiz-adv-x="1320" d="M-180 98V100Q-180 150 -145 187T-66 225Q-28 225 -7 207T14 158Q11 119 -23 90Q-26 87 -33 80T-44 70T-52 60T-59 48T-63 35Q-67 4 -33 -14T76 -33Q200 -33 355 31T651 203Q943 423 1096 713Q1114 749
1135 778Q1179 840 1217 842Q1234 843 1239 835T1237 815Q1203 766 1188 700Q1183 678 1179 645T1172 591T1166 518T1161 451Q1145 244 1104 141H1106Q1209 292 1334 452T1559 717Q1797 969 1958 969Q2018 969 2050 934T2085 854Q2085 834 2079 834Q2077 834 2076
837T2072 845T2068 854Q2048 909 1952 909Q1776 909 1575 698Q1368 484 1036 4Q1034 2 1030 -4T1024 -12T1017 -20T1010 -27T1002 -31T994 -32T985 -29Q964 -16 981 27Q1034 172 1049 354Q1052 390 1056 444T1062 527T1070 590T1083 645H1081Q1022 532 906 406T664
184Q515 73 360 9T74 -59Q26 -60 -17 -53T-98 -28T-158 21T-180 98Z" />
<glyph unicode="O" glyph-name="O" horiz-adv-x="833" d="M279 106Q279 60 301 29Q310 16 309 14Q306 7 293 20Q263 50 258 109Q253 179 286 272T391 459Q501 594 633 676T856 750Q952 738 938 602Q933 540 890 445T784 272Q676 140 522 53T231 -31Q198 -30 168
-23T107 2T54 53T27 135Q16 236 71 358T236 590Q358 711 528 787T854 856Q917 853 959 825T1006 743Q1009 716 1000 688T975 643Q968 635 959 629T946 627Q945 630 946 631T952 638T963 651Q990 694 983 741Q979 780 942 803T854 829Q769 833 658 783T461 666T315
535Q215 421 164 298T125 90Q133 38 169 14T252 -12Q463 -21 719 299Q790 389 841 484T899 651Q904 685 892 705T854 729Q777 736 656 652T430 438Q358 347 319 258T279 106Z" />
<glyph unicode="P" glyph-name="P" horiz-adv-x="1161" d="M807 578Q807 616 783 642T721 670Q682 671 646 655T588 618Q577 608 568 597T556 582T549 578Q547 579 549 586T558 606T578 631Q642 694 727 690Q774 688 807 658T840 573Q840 517 806 458T715 351T583
275T428 248Q317 251 258 296T201 432Q205 549 304 648T565 805T911 862Q1110 862 1235 786Q1300 836 1378 868Q1474 911 1585 911Q1701 911 1735 856Q1743 841 1735 838Q1733 838 1730 842Q1726 846 1722 850Q1684 893 1587 893Q1487 893 1393 850Q1313 814 1257
770Q1288 744 1310 712T1344 637T1345 544T1298 442Q1270 400 1228 369T1139 322T1059 299T991 289Q919 285 889 295Q741 136 545 53V51Q722 20 752 20Q852 20 918 66Q925 71 934 78Q941 85 944 82Q946 80 946 77T941 66T926 49Q847 -20 729 -20Q623 -20 467 18Q347
-25 152 -25Q79 -25 22 -10T-35 43Q-35 83 22 105T176 123Q282 118 506 66Q584 112 654 183T834 385Q902 469 947 521T1067 649T1206 766Q1169 795 1087 819T915 844Q747 844 608 793T382 644T287 422Q282 357 318 314T428 266Q501 263 573 294T695 374T776 478T807
578ZM905 315Q937 307 981 313Q1128 333 1227 473Q1264 525 1273 581T1270 678T1231 745Q1175 697 1066 538T948 367Q932 345 905 315ZM434 31Q423 33 375 43T299 58T233 69T168 76Q-8 90 -8 43Q-8 17 43 7T152 -4Q232 -4 313 6T434 31Z" />
<glyph unicode="Q" glyph-name="Q" horiz-adv-x="1024" d="M801 573Q801 603 774 625T705 647Q646 644 602 608Q590 598 581 588T569 574T563 571Q560 574 562 580T571 595T590 616Q609 636 642 652T713 668Q768 668 803 640T838 557Q838 472 745 389Q691 341
615 313T461 285Q390 285 345 321T295 424Q291 499 339 581T461 721Q543 785 651 820T844 856Q896 856 943 845T1031 811T1097 748T1124 655Q1129 466 862 281Q782 226 646 161T422 70V68Q599 25 655 25Q840 25 1016 182Q1037 204 1044 197Q1049 191 1028 170Q924
74 831 23T637 -29Q517 -29 326 27Q175 -25 27 -25Q-40 -25 -90 -10T-141 41Q-141 81 -82 106T82 131Q211 131 391 80Q617 170 801 330Q906 419 964 503T1022 678Q1022 838 844 838Q762 838 667 797T483 682Q317 539 324 424Q327 367 364 335T461 303Q525 303 592
335T715 418Q801 494 801 573ZM293 41Q118 77 66 82Q-9 87 -61 78T-113 43Q-113 -4 29 -4Q97 -4 171 10T293 41Z" />
<glyph unicode="R" glyph-name="R" horiz-adv-x="1349" d="M1577 899Q1494 899 1403 860Q1332 832 1284 797Q1300 787 1315 773T1349 735T1377 685T1388 625T1374 555Q1343 484 1260 446T1102 408V406Q1130 394 1150 371T1174 319Q1179 268 1133 203Q1126 191
1107 164T1081 124T1067 93T1059 59Q1059 45 1068 35T1098 25Q1144 25 1245 102Q1295 140 1343 184Q1365 206 1372 199Q1378 194 1358 174Q1314 132 1249 80Q1139 -8 1059 -8Q1011 -8 986 14T961 74Q957 135 1032 231Q1037 237 1048 251T1064 272T1077 289T1089
308T1097 324T1103 342T1104 358Q1104 385 1067 406Q1043 400 1022 403Q999 407 985 414Q958 374 928 336Q827 213 738 150T545 41Q597 29 645 25Q731 17 795 59Q810 70 822 80Q827 85 829 84Q831 82 831 78T826 66T811 49Q736 -18 618 -18Q559 -18 461 10Q401
-8 315 -17T152 -25Q83 -25 24 -8T-35 43Q-35 83 22 105T176 123Q207 121 256 112T333 97T433 73T512 53Q633 112 811 350Q1057 674 1233 788Q1142 844 977 844Q847 844 722 796T505 661T389 467Q368 382 396 322T496 256Q510 255 519 255T534 257T543 259T548
260T551 258Q553 255 547 250T525 241T492 236Q397 239 344 302T309 469Q330 581 430 672T675 812T977 862Q1154 862 1262 809Q1305 842 1393 879Q1486 918 1579 918Q1627 918 1668 904T1726 864Q1731 857 1733 850T1736 838T1733 834Q1730 834 1729 835T1725 843T1714
856Q1676 899 1577 899ZM1257 772Q1199 725 1124 618Q1102 588 1059 525T995 434Q1016 434 1034 432Q1051 430 1075 422Q1145 427 1207 468T1296 573Q1321 639 1309 690T1257 772ZM426 20Q404 25 348 38T246 61T166 74Q-10 92 -10 41Q-10 19 41 8T150 -6Q325 -9
426 20Z" />
<glyph unicode="S" glyph-name="S" horiz-adv-x="1116" d="M784 442Q1099 573 1104 575Q1219 751 1341 838Q1412 884 1468 887Q1498 889 1519 876T1538 831Q1534 782 1461 723T1282 618Q1256 607 1227 596L1122 393Q909 -23 461 -53Q243 -65 127 16Q-3 -98 -37
-174Q-37 -175 -38 -176Q-43 -186 -46 -190T-53 -193Q-60 -189 -53 -168Q-24 -82 100 37Q16 114 25 229Q31 300 77 361T189 460T324 520T453 547Q547 556 645 530T784 442ZM1239 625Q1244 627 1257 632T1276 639Q1369 678 1439 731T1516 831Q1519 852 1505 861T1468
868Q1425 862 1374 811Q1318 758 1239 625ZM510 143Q421 143 354 186Q287 143 231 100Q188 68 164 47Q217 -4 302 -23T479 -35Q639 -21 764 84T1001 395Q1063 502 1092 545V547Q925 479 799 420Q811 392 811 356Q808 260 714 202T510 143ZM506 164Q597 164 678
218T764 354Q764 382 758 403L621 340Q487 275 371 199Q434 164 506 164ZM752 426Q720 489 631 513T453 528Q396 524 338 505T227 451T137 362T96 238Q90 137 141 74Q176 106 205 127Q258 166 324 209Q287 241 281 287Q277 307 287 307Q289 307 293 291Q304 253
342 221Q473 300 616 365L752 426Z" />
<glyph unicode="T" glyph-name="T" horiz-adv-x="1269" d="M1466 1051Q1383 1051 1315 1022T1206 946Q1187 924 1176 891Q1173 884 1172 876T1169 865T1165 862Q1158 862 1161 889Q1164 924 1192 958Q1232 1011 1304 1044T1468 1077Q1602 1077 1678 1018T1735
856Q1718 771 1616 728T1360 690Q1316 690 1309 688Q1278 677 1236 644T1153 561Q1129 532 1056 433T922 274Q817 179 690 118T451 35V33Q665 14 776 14Q910 16 1000 37T1176 115Q1207 135 1264 184Q1283 202 1290 197Q1297 189 1274 170Q1208 112 1182 94Q1093
32 991 4T748 -25Q563 -25 348 4Q266 -13 129 -18Q-77 -24 -70 16Q-59 68 100 68Q201 68 406 41Q464 51 544 87T684 174Q752 231 841 337T965 479Q1120 648 1280 694V696Q1173 707 1001 739Q993 740 961 746T919 755T879 762T836 770T796 776T753 782T714 785T672
788Q529 797 427 748T313 602Q306 535 363 489T508 440Q602 439 660 474T723 569Q726 604 709 629Q707 631 703 635Q698 640 700 641Q707 647 723 635Q737 627 750 609T764 565Q765 500 689 461T508 422Q409 424 346 475T291 608Q298 681 355 735T501 815T696 838Q789
836 1036 795Q1226 762 1382 752Q1520 745 1608 778T1708 883Q1720 952 1653 1001T1466 1051Z" />
<glyph unicode="U" glyph-name="U" horiz-adv-x="1132" d="M834 274Q728 169 590 76T362 -18Q314 -18 290 5T272 76Q281 136 340 216T532 446Q640 569 692 638T760 760Q771 802 744 822T672 842Q592 842 496 795T315 664Q152 505 152 397Q152 359 170 336T225
313Q265 313 299 334Q307 339 314 345T324 353T330 354Q334 351 326 341T305 322Q269 295 221 295Q177 296 151 322T119 395Q114 464 157 547T276 700Q362 779 473 819T672 860Q748 860 793 831T838 743Q837 682 786 608T639 422Q505 273 446 195T379 70Q371 25
408 20Q469 12 633 131Q723 197 786 258T934 418Q1134 646 1309 782Q1346 811 1396 840T1475 866Q1501 860 1496 834T1462 774Q1415 723 1309 645Q1178 548 1122 502L1057 422Q986 329 950 279T875 161T836 57Q836 23 877 23Q923 23 1008 86Q1059 123 1108 168Q1143
199 1149 193Q1152 188 1148 183T1128 162Q1081 116 1020 70Q914 -12 840 -12Q794 -12 769 11T743 78Q743 151 834 274ZM1176 567Q1195 582 1296 655Q1370 704 1432 766Q1452 788 1463 805T1476 832T1470 846Q1441 857 1360 768Q1261 667 1176 567Z" />
<glyph unicode="V" glyph-name="V" horiz-adv-x="987" d="M193 6Q381 16 580 106Q662 142 765 209T934 334Q1112 487 1184 616Q1197 641 1194 668Q1194 695 1171 782Q1162 805 1166 834T1196 864Q1227 864 1243 837T1255 762Q1248 687 1204 608Q1114 431 965 301Q806
157 594 72Q380 -11 147 -18Q91 -34 41 -37Q-53 -44 -53 -23Q-53 8 25 12Q94 15 152 8Q298 71 500 279Q728 511 752 688Q762 766 728 805T629 844Q555 844 474 810T324 723Q258 670 212 598T158 463Q152 407 173 370T246 330Q340 323 463 457Q497 494 523 542T553
623Q556 656 545 676Q536 688 537 690Q540 697 553 684Q580 657 578 606Q570 519 492 434Q445 384 375 347T242 313Q175 317 142 358T115 467Q123 530 173 603T303 737Q379 794 466 828T633 862Q681 862 721 852T796 819T849 752T860 647Q849 555 772 449T590 246Q514
174 402 108T193 6Z" />
<glyph unicode="W" glyph-name="W" horiz-adv-x="1230" d="M625 844Q552 844 471 810T319 723Q254 671 209 599T156 463Q149 407 170 371T244 332Q339 327 461 457Q495 494 521 542T551 623Q554 654 541 676Q540 679 537 683Q533 687 535 690Q538 697 551 684Q578
657 573 606Q570 524 489 434Q443 384 373 347T240 313Q171 317 138 358T113 467Q121 530 171 603T301 737Q377 794 464 828T629 862Q676 862 716 852T793 819T846 752T856 647Q848 561 729 397T489 113V111Q543 148 723 281L977 469Q1021 597 1067 672Q1140 788
1212 788Q1241 788 1256 765T1260 707Q1251 678 1226 646T1178 592T1121 540T1073 498Q1072 492 1064 460T1054 417T1043 376T1031 332T1019 291T1005 248T991 210T975 172T958 141T938 111V109Q977 147 1118 269T1307 434Q1442 556 1509 655T1587 817Q1594 867
1575 887Q1567 893 1554 897Q1550 897 1549 898T1548 901Q1551 907 1569 907Q1611 907 1633 878T1653 807Q1634 659 1327 408Q1018 153 872 14Q842 -16 815 -16Q801 -16 799 -5T807 18Q838 60 866 134T923 301T967 432V434Q907 383 702 233Q680 218 599 159T455
56T358 -10Q326 -31 315 -31Q297 -31 294 -20T303 8Q455 168 563 319Q728 551 750 688Q762 765 727 804T625 844ZM1079 535Q1085 541 1114 566T1162 609T1203 653T1235 705Q1245 734 1237 751T1208 768Q1188 768 1167 744T1135 694Q1110 644 1079 535Z" />
<glyph unicode="X" glyph-name="X" horiz-adv-x="999" d="M973 643Q1011 676 1052 707T1151 773T1270 830T1386 852Q1432 852 1458 827T1475 762Q1465 716 1418 677T1323 618T1241 594Q1212 590 1210 596Q1210 600 1241 608Q1302 625 1351 666T1411 762Q1416 790
1403 809T1364 829Q1264 832 1129 718T860 434Q689 214 664 98Q645 14 713 14Q769 14 877 88Q905 109 991 182Q1018 206 1026 203Q1032 198 1004 170Q936 107 887 72Q777 -14 682 -18Q611 -19 582 11T559 100Q563 142 596 195V197Q351 -29 123 -29Q41 -29 -14 1T-76
98Q-79 152 -45 195T49 238Q80 238 99 222T117 178Q115 147 76 115Q61 102 54 96T40 77T31 51Q30 18 57 4T129 -10Q399 -10 715 391Q791 487 855 593T932 750Q943 799 919 820T852 842Q773 842 677 795T496 664Q329 501 332 397Q332 359 351 336T406 313Q445 313
479 334Q486 338 492 344T502 352T508 354Q514 351 506 341T485 322Q449 295 403 295Q359 295 331 322T299 395Q297 469 338 552T457 700Q547 778 657 819T852 860Q926 860 967 831T1008 743Q1005 689 973 643Z" />
<glyph unicode="Y" glyph-name="Y" horiz-adv-x="1021" d="M862 303Q749 185 602 84T362 -18Q314 -18 290 5T272 76Q281 136 340 216T532 446Q640 569 692 638T760 760Q771 802 744 822T672 842Q592 842 496 795T315 664Q152 505 152 397Q152 359 170 336T225
313Q270 313 299 334Q305 338 312 344T323 353T330 354Q334 351 326 341T305 322Q269 295 221 295Q178 295 150 322T119 395Q116 464 158 548T276 700Q363 778 474 819T672 860Q748 860 793 831T838 743Q837 682 786 608T639 422Q505 273 446 195T379 70Q371 25
408 20Q469 12 633 131Q793 249 934 418Q1129 654 1255 782Q1350 871 1407 866Q1437 863 1437 834T1413 774Q1368 717 1278 645Q1175 562 1112 502L846 137L668 -115Q824 -111 906 -179T971 -362Q968 -380 961 -392T948 -403Q947 -400 947 -399T949 -388T954 -365Q967
-254 887 -191T655 -135Q572 -254 436 -414Q314 -556 177 -650T-47 -745Q-83 -745 -110 -726T-133 -659Q-126 -580 -29 -476T170 -301Q266 -237 371 -192T563 -129L862 303ZM1159 569L1264 655Q1349 724 1382 766Q1400 788 1409 805T1418 833T1409 846Q1380 856
1311 768Q1265 713 1159 569ZM551 -152Q375 -189 186 -319Q98 -380 12 -487T-74 -664Q-74 -689 -61 -702T-31 -717Q19 -723 96 -676Q148 -644 220 -571T358 -412L551 -152Z" />
<glyph unicode="Z" glyph-name="Z" horiz-adv-x="935" d="M887 664Q739 582 623 582Q551 582 500 608T455 696Q460 743 505 783T609 844T725 868Q756 868 756 860Q756 856 740 855Q730 855 725 854Q669 851 625 815T575 725Q572 686 595 665T653 641Q772 630 918
705Q982 774 1030 813Q1087 860 1126 854Q1139 852 1138 839T1122 811Q1073 757 971 700Q893 622 735 492Q583 365 518 322V319H543Q655 319 724 261T797 90Q859 123 936 190Q954 207 961 201Q966 196 940 170Q921 151 878 119T799 68Q791 -149 514 -383Q337 -532
126 -634T-221 -735Q-341 -732 -350 -641Q-353 -599 -328 -554T-261 -471T-158 -390T-41 -318T82 -252Q187 -197 382 -112T682 35Q694 75 690 144T655 248Q626 279 575 289T481 293Q423 250 356 205Q231 122 207 162Q196 180 230 212T324 270Q398 303 471 315Q568
385 684 483Q789 569 887 664ZM676 6Q578 -51 381 -139T94 -276Q-101 -382 -169 -429Q-335 -543 -328 -641Q-325 -678 -296 -696T-223 -715Q-98 -715 85 -618T412 -373Q626 -153 676 6ZM440 287Q395 280 334 252Q290 232 264 211T242 180Q251 161 342 221Q416 268
440 287Z" />
<glyph unicode="[" glyph-name="bracketleft" horiz-adv-x="489" d="M993 948L985 934Q917 930 858 922Q824 917 812 910T778 877L395 375Q263 206 12 -92Q-16 -126 -13 -137T27 -154L147 -166L137 -178H-90Q-83 -169 -14 -72T149 152T326 383Q587 712 793 948H993Z" />
<glyph unicode="\" glyph-name="backslash" horiz-adv-x="489" d="M285 -176H283Q274 -176 268 -150L72 698Q63 742 92 778Q114 801 125 764Q127 755 135 717Q158 603 209 314T291 -137Q298 -176 285 -176Z" />
<glyph unicode="]" glyph-name="bracketright" horiz-adv-x="489" d="M-68 -178H-268L-258 -164Q-195 -160 -131 -152Q-97 -146 -85 -140T-53 -106L330 395Q462 564 713 862Q742 897 739 908T700 924L580 936L588 948H815Q540 562 401 389Q278 234 134 60T-68 -178Z" />
<glyph unicode="^" glyph-name="asciicircum" horiz-adv-x="628" d="M422 516H424Q428 516 444 494Q523 375 588 297Q600 281 596 279Q590 272 567 289Q468 362 403 432Q358 398 261 348T106 272Q89 266 86 270Q82 276 102 289Q217 363 395 500Q417 516 422 516Z" />
<glyph unicode="_" glyph-name="underscore" horiz-adv-x="1024" d="M911 -215V-276H-131V-215H911Z" />
<glyph unicode="`" glyph-name="grave" horiz-adv-x="628" d="M391 700H393Q408 700 416 680Q454 589 518 504Q528 489 522 485Q517 482 502 494Q397 579 367 631Q356 644 356 662Q356 677 367 688T391 700Z" />
<glyph unicode="a" glyph-name="a" horiz-adv-x="587" d="M399 272Q474 350 516 350Q547 351 553 344T543 317Q478 245 428 182Q383 128 356 82Q336 46 350 35Q362 25 397 43Q432 60 489 106L588 190Q610 211 616 205Q624 199 590 168Q529 112 475 70Q373 -12
299 -12Q243 -12 240 31Q237 66 268 104L266 106Q216 62 155 27T41 -12Q2 -14 -23 5T-43 70Q-37 117 14 176L12 178Q-2 164 -14 154Q-29 143 -33 147Q-38 156 -4 186Q6 198 57 236Q103 266 152 293Q283 361 356 350Q386 346 397 323T399 272ZM348 330Q289 330 160
201Q39 82 45 39Q48 18 72 18Q101 18 151 46T244 115Q295 160 339 214T385 293Q388 330 348 330Z" />
<glyph unicode="b" glyph-name="b" horiz-adv-x="610" d="M555 272Q549 226 514 174T418 78Q307 -6 182 -10Q100 -10 100 31Q101 58 133 74T233 109Q350 137 391 156Q407 173 428 205T457 258Q478 319 436 319Q375 319 258 227Q172 161 31 20Q4 -5 -29 -8Q-58
-9 -62 -1T-57 25Q-39 66 27 162Q67 219 86 242H84L10 176Q-6 162 -12 168Q-17 173 -2 188Q127 301 129 303Q292 510 379 610Q474 723 625 875T854 1083Q964 1165 1028 1165Q1065 1165 1081 1144T1092 1092Q1086 1057 1052 1010T949 899T826 787T672 657Q636 628
480 507T254 324Q238 305 204 258T144 172L117 135L119 133Q195 213 311 291Q419 360 492 350Q526 347 542 327T555 272ZM182 12Q230 17 281 47Q338 85 375 133Q340 116 248 94Q130 65 133 31Q136 8 182 12ZM287 377Q392 469 502 556T653 680Q866 871 930 938Q1035
1047 1040 1104Q1043 1143 1006 1143Q958 1143 872 1061Q724 915 600 768Q408 538 287 377Z" />
<glyph unicode="c" glyph-name="c" horiz-adv-x="438" d="M82 -18H80Q-35 -18 -29 68Q-23 128 31 190L29 193Q23 187 -6 162Q-28 144 -33 150Q-37 157 -20 172Q6 197 55 233Q97 264 154 295Q275 360 342 350Q376 344 390 323T397 272Q391 244 370 224T328 203Q303
203 300 221T311 262Q348 325 317 330Q281 337 190 244Q146 199 113 148T76 61Q73 39 85 27T123 14Q151 14 201 31T311 88Q352 116 434 186Q451 201 457 195Q461 188 440 168Q378 108 319 70Q264 32 199 7T82 -18Z" />
<glyph unicode="d" glyph-name="d" horiz-adv-x="587" d="M348 330Q289 330 160 201Q39 82 45 39Q48 18 72 18Q101 18 151 46T244 115Q295 160 339 214T385 293Q388 330 348 330ZM152 293Q281 360 356 350Q384 346 396 326T401 281H403Q494 412 666 610Q776 740
909 864Q944 899 985 899Q1012 899 1016 885Q920 791 782 631Q667 497 526 317Q392 145 356 82Q336 46 350 35Q362 25 397 43Q432 60 489 106L588 190Q610 211 616 205Q624 199 590 168Q529 112 475 70Q373 -12 299 -12Q243 -12 240 31Q237 66 268 104L266 106Q216
62 155 27T41 -12Q2 -14 -23 5T-43 70Q-37 117 14 176L12 178Q-2 164 -14 154Q-29 143 -33 147Q-38 157 0 190Q8 199 57 236Q111 272 152 293Z" />
<glyph unicode="e" glyph-name="e" horiz-adv-x="436" d="M121 12Q147 12 197 29T307 88Q368 130 432 186Q449 201 455 195Q461 185 438 168Q379 112 309 66Q184 -18 78 -18Q21 -18 -6 2T-31 63Q-28 119 31 190L29 193Q20 183 -12 156Q-28 143 -33 150Q-37 157
-20 172Q6 197 55 233Q93 261 156 295Q264 352 332 352H334Q365 352 380 336T393 297Q388 235 262 172Q181 132 86 106Q74 82 74 59Q74 12 121 12ZM98 129Q172 147 238 190Q275 215 297 244T322 297Q325 326 297 326Q270 326 207 266Q183 244 151 203T98 129Z"
/>
<glyph unicode="f" glyph-name="f" horiz-adv-x="350" d="M1034 1165H1036Q1069 1165 1084 1144T1094 1092Q1090 1068 1074 1039T1022 972T958 905T870 824T778 746T674 659Q648 638 494 514T268 326Q127 151 27 8Q62 15 115 37Q177 63 229 96Q292 137 346 186Q354
195 364 202T379 205Q386 198 360 176Q307 121 227 72Q159 30 66 -4Q30 -16 14 -37Q0 -57 -14 -102Q-40 -186 -87 -294T-186 -492Q-313 -711 -424 -795Q-473 -833 -512 -827Q-559 -820 -545 -750Q-528 -669 -440 -513T-240 -203L121 270L119 272Q88 249 10 176Q-6
162 -12 168Q-17 173 0 190Q64 253 166 332L393 612Q514 753 651 891T866 1085Q903 1111 922 1124T974 1151T1034 1165ZM305 379L657 682Q870 873 934 940Q1039 1049 1044 1106Q1046 1124 1038 1133T1012 1143Q975 1143 885 1061Q780 962 618 770Q478 605 305 379ZM-18
-51Q-47 -88 -67 -113T-108 -168T-139 -209T-170 -254T-198 -295T-234 -349T-276 -412Q-435 -650 -473 -737Q-490 -776 -473 -786Q-458 -795 -422 -768Q-380 -735 -321 -658T-199 -473Q-146 -383 -95 -258T-18 -51Z" />
<glyph unicode="g" glyph-name="g" horiz-adv-x="581" d="M109 -127Q60 -159 -68 -236T-301 -383Q-441 -477 -534 -573T-633 -745Q-636 -791 -602 -801Q-579 -808 -541 -798T-473 -768Q-311 -671 -98 -399Q31 -235 109 -127ZM348 330Q289 330 160 201Q39 82 45
39Q48 18 72 18Q101 18 151 46T244 115Q295 160 339 214T385 293Q388 330 348 330ZM152 293Q280 361 356 350Q412 342 403 281H406Q441 321 461 335T504 350Q534 350 540 343T530 317Q492 272 424 182L256 -45Q385 32 453 84Q531 144 580 188Q597 206 604 199Q610
194 584 168Q541 128 463 68Q367 -4 238 -78Q175 -171 89 -282T-43 -444Q-143 -555 -257 -647T-465 -788Q-544 -831 -606 -831Q-652 -831 -680 -812T-702 -745Q-684 -605 -289 -346L127 -92Q234 56 264 100L262 102Q134 -7 41 -12Q2 -14 -22 4T-43 70Q-37 117 14
176L12 178Q-2 164 -14 154Q-29 143 -33 147Q-38 157 0 190Q8 199 57 236Q111 272 152 293Z" />
<glyph unicode="h" glyph-name="h" horiz-adv-x="649" d="M287 377Q397 473 508 562T653 680Q741 756 798 807T915 919T1006 1026T1040 1104Q1043 1143 1006 1143Q958 1143 872 1061Q698 885 600 768Q408 538 287 377ZM537 70Q429 -12 352 -12Q288 -12 291 41Q292
62 308 90T335 133T377 184Q389 199 419 233T463 285Q479 305 465 313Q452 321 412 301Q340 266 252 197L23 10Q-1 -8 -31 -8Q-54 -8 -60 -3T-57 25Q-24 88 27 162Q51 199 88 244V246L10 176Q-7 162 -12 170Q-14 176 -2 188Q14 206 131 303Q276 494 379 610Q483
730 632 881T854 1083Q891 1110 913 1124T967 1151T1028 1165Q1065 1165 1081 1144T1092 1092Q1086 1057 1052 1010T949 899T826 787T672 657Q638 629 490 515T254 324Q215 281 84 88L86 86Q231 207 274 240Q423 350 498 350Q530 350 547 336T561 295Q559 284 554
273T538 246T521 222T499 194T479 170Q434 117 412 80Q391 44 403 35Q416 26 453 43Q498 66 551 106Q588 135 649 190Q670 209 676 203T659 176Q600 117 537 70Z" />
<glyph unicode="i" glyph-name="i" horiz-adv-x="331" d="M451 623H453Q474 623 479 608T467 569Q450 547 419 531T371 514Q363 523 362 543T369 584Q385 623 451 623ZM166 293Q142 283 78 231Q49 208 4 170Q-19 150 -27 154Q-33 160 -4 186Q58 245 141 301Q180
328 205 337T260 346Q292 346 296 340T283 313Q231 255 172 182Q137 139 100 82Q83 48 94 37Q108 26 143 43Q181 61 233 104Q279 141 328 186Q354 211 360 205Q366 200 338 172Q289 123 221 70Q117 -14 43 -14Q-18 -14 -18 39Q-18 70 12 117Q40 160 88 213T166
293Z" />
<glyph unicode="j" glyph-name="j" horiz-adv-x="342" d="M193 307Q186 307 160 291Q132 274 78 231Q49 208 4 170Q-19 150 -27 154Q-33 160 -4 186Q58 245 141 301Q205 346 260 346Q292 346 295 340T283 315L176 184L-6 -53Q85 -8 209 82Q275 130 338 186Q360
211 369 203Q373 200 367 191T346 170Q287 115 215 63Q109 -14 -23 -86Q-91 -184 -171 -290T-295 -444Q-445 -610 -604 -720T-864 -831Q-886 -831 -906 -825T-941 -798T-950 -745Q-944 -702 -904 -649T-800 -542T-675 -442T-545 -352Q-449 -289 -331 -219T-133
-96L8 98Q139 271 193 307ZM-156 -133Q-212 -171 -332 -244T-551 -383Q-691 -476 -784 -573T-883 -745Q-885 -788 -852 -799Q-828 -806 -791 -796T-721 -766Q-557 -666 -348 -399Q-257 -286 -156 -133ZM432 623H434Q459 623 465 608T453 569Q435 548 404 532T356
516Q348 524 348 544T354 584Q372 623 432 623Z" />
<glyph unicode="k" glyph-name="k" horiz-adv-x="638" d="M88 244V246L10 176Q-7 162 -12 170Q-14 176 -2 188Q4 194 129 303Q275 495 379 610Q481 728 625 873T854 1083Q891 1110 913 1124T968 1152T1028 1165Q1065 1165 1081 1144T1092 1092Q1086 1057 1052
1010T949 899T826 787T672 657Q636 628 480 507T254 324Q221 287 90 98L94 96Q109 109 146 142T211 200T270 248Q347 306 406 332Q457 353 508 350Q549 347 569 322T575 268Q557 235 479 225Q402 214 391 197Q372 167 375 113Q381 43 410 37Q428 34 463 53Q499
73 541 106Q575 134 639 190Q642 194 651 200T666 203Q671 196 649 175Q646 173 645 172Q577 109 524 68Q423 -12 348 -12Q275 -12 279 84Q282 155 324 197Q350 223 408 231Q455 242 471 260Q482 273 484 291T469 319Q449 329 406 309Q341 280 250 207Q208 172
127 100T25 12Q-5 -8 -29 -8Q-54 -8 -60 -2T-57 25Q-39 66 27 162Q38 178 48 191T69 220T88 244ZM287 377Q397 473 508 562T653 680Q744 759 797 808T913 919T1006 1026T1040 1104Q1043 1143 1006 1143Q958 1143 872 1061Q698 885 600 768L287 377Z" />
<glyph unicode="l" glyph-name="l" horiz-adv-x="344" d="M96 250L94 252L10 176Q-7 162 -12 170Q-14 176 -2 188Q11 202 147 317Q293 501 389 610Q511 753 633 864Q670 899 707 899Q737 899 737 885Q705 853 599 735T432 545Q159 214 104 94Q86 51 100 39Q118
27 164 51Q204 74 248 109Q286 138 338 184Q360 209 369 201Q375 195 354 176Q297 119 229 70Q121 -12 45 -12Q-21 -12 -18 43Q-15 108 96 250Z" />
<glyph unicode="m" glyph-name="m" horiz-adv-x="1048" d="M104 283Q191 350 244 350Q295 350 295 305Q295 276 252 217Q167 105 156 88L158 86Q308 211 346 240Q495 350 567 350Q604 350 621 334T633 291Q628 261 553 174Q502 114 479 84L481 82Q589 176 674
240Q821 350 897 350Q930 350 947 335T961 295Q959 284 954 272T938 246T921 222T899 195T879 170Q841 125 811 80Q789 46 803 35Q816 25 852 43Q892 62 950 106Q971 122 1049 190Q1069 209 1075 203Q1080 198 1059 176Q988 109 936 70Q828 -12 752 -12Q687 -12
690 41Q690 51 693 61T702 82T713 103T728 125T743 144T760 165T776 184L862 285Q878 305 864 313Q851 321 811 301Q742 268 651 197L422 10Q398 -8 369 -8Q344 -8 339 -2T342 25Q370 86 451 184Q469 206 499 240T537 285Q544 293 544 301T535 313Q521 317 483
301Q408 265 324 197Q277 161 207 103T94 10Q71 -8 41 -8Q17 -8 11 -3T14 25Q41 71 104 162Q118 182 186 268Q207 294 201 303Q194 313 170 301Q142 288 90 246Q40 204 2 168Q-26 142 -33 150Q-38 157 -2 188Q82 265 104 283Z" />
<glyph unicode="n" glyph-name="n" horiz-adv-x="720" d="M424 -12Q394 -12 378 1T362 41Q363 62 379 90T407 133T449 184Q466 205 535 285Q551 305 537 313Q524 320 483 301Q413 267 324 197Q277 161 207 103T94 10Q71 -8 41 -8Q17 -8 11 -3T14 25Q55 96 104
162L186 268Q207 294 201 303Q194 313 170 301Q142 288 90 246Q40 204 2 168Q-26 142 -33 150Q-38 157 -2 188Q82 265 104 283Q191 350 244 350Q295 350 295 305Q295 276 252 217Q167 105 156 88L158 86Q308 211 346 240Q495 350 569 350Q602 350 619 336T633 295Q631
284 626 273T610 246T593 222T571 194T551 170Q518 131 483 80Q462 45 475 35T524 43Q567 64 623 106Q639 119 721 190Q741 209 748 203Q753 198 731 176Q674 119 608 70Q500 -12 424 -12Z" />
<glyph unicode="o" glyph-name="o" horiz-adv-x="509" d="M43 205L6 172Q-14 154 -20 160Q-25 165 -6 184Q9 200 57 236Q103 267 156 295Q255 347 326 350Q356 350 356 342Q356 340 355 339T347 336T334 330Q277 303 186 217Q140 171 106 119T68 37Q65 2 96 2Q129
2 183 38T287 127Q291 171 324 213Q350 249 389 266Q395 281 395 313Q395 322 393 330T391 340T393 346Q404 352 422 334Q452 302 446 262Q438 195 330 96Q342 90 369 96Q398 102 438 131Q464 150 504 184Q532 211 539 205Q546 198 512 168Q472 132 446 115Q404
85 369 78Q332 70 313 82Q184 -18 80 -18Q31 -18 5 5T-20 72Q-17 138 45 203L43 205Z" />
<glyph unicode="p" glyph-name="p" horiz-adv-x="669" d="M207 354L2 168Q-23 146 -31 150Q-38 157 -2 188L137 317L324 487Q367 528 403 528Q433 526 433 520T410 487Q404 481 401 477Q214 257 -125 -201Q-266 -392 -329 -482T-492 -727Q-512 -760 -504 -768Q-495
-777 -477 -756Q-475 -754 -317 -535Q-280 -482 -82 -217Q62 -26 166 96Q260 206 346 270Q453 350 522 350Q590 350 584 297Q583 290 581 282T572 265T561 248T547 230T533 212T516 192T500 174Q441 108 428 86Q407 50 422 39Q439 26 477 45Q518 65 571 106Q613
139 666 186Q688 211 696 203Q702 198 680 176Q615 114 555 70Q448 -12 371 -12Q334 -12 318 5T305 47Q311 91 395 184Q472 270 483 287Q498 306 483 313Q471 319 438 303Q334 250 225 133Q108 3 -72 -238Q-265 -495 -319 -575Q-451 -770 -496 -807Q-526 -833 -555
-827Q-590 -821 -590 -784Q-590 -730 -512 -612Q-402 -447 -225 -209Q-8 89 207 354Z" />
<glyph unicode="q" glyph-name="q" horiz-adv-x="559" d="M356 350Q386 344 397 322T399 272Q431 305 443 317T472 339T504 350Q535 350 543 343T537 317Q413 173 403 160Q322 59 131 -203Q-10 -396 -71 -484T-231 -727Q-253 -761 -242 -768T-211 -752Q-177 -714
-61 -545L170 -229Q275 -94 414 51Q484 124 553 184Q580 209 586 203Q593 196 561 168Q509 123 444 55Q306 -89 186 -242Q57 -411 -57 -578Q-65 -589 -94 -630T-135 -687T-167 -730T-202 -774T-231 -803Q-262 -832 -291 -829Q-330 -825 -330 -786Q-330 -749 -246
-612Q-141 -447 33 -211L266 104L264 106Q219 63 156 27T41 -12Q2 -14 -23 5T-43 70Q-37 117 14 176L12 178Q-2 164 -14 154Q-29 143 -33 147Q-38 157 0 190Q8 199 57 236Q111 272 152 293Q280 361 356 350ZM348 330Q289 330 160 201Q39 82 45 39Q48 18 72 18Q101
18 151 46T244 115Q295 160 339 214T385 293Q388 330 348 330Z" />
<glyph unicode="r" glyph-name="r" horiz-adv-x="421" d="M350 297V295Q350 286 341 272T321 245T289 209T256 172Q208 115 186 76Q171 47 184 37Q198 28 229 45Q275 69 322 106Q370 143 418 186Q440 210 449 203Q454 198 424 168Q369 117 307 70Q200 -12 125
-12Q93 -12 76 2T61 41Q63 94 160 186Q180 205 213 232T268 278T293 303Q298 317 277 319Q280 319 211 319Q174 319 164 324Q130 286 86 246Q22 186 4 170Q-21 148 -27 154Q-34 161 -4 186L76 260Q131 313 147 332Q133 341 133 360T147 397Q175 432 225 432Q238
432 249 427T262 412Q238 393 227 383Q190 341 233 338Q262 337 277 336T312 331T341 319T350 297Z" />
<glyph unicode="s" glyph-name="s" horiz-adv-x="468" d="M244 43Q283 57 334 88Q390 123 469 190Q490 209 496 203Q503 196 473 170Q424 126 369 88Q315 51 240 18Q157 -18 68 -18Q-7 -18 -34 17T-55 104Q-49 149 -19 180T49 211Q70 210 80 197T88 166Q82 135
43 115Q-2 88 -4 53Q-5 29 11 16T55 2Q88 2 124 29T193 113Q211 143 244 226T289 322V324Q257 292 190 246Q148 215 113 197Q95 189 92 195Q89 203 102 211Q144 235 188 268Q234 302 309 367Q317 383 342 401Q373 424 401 424Q446 424 413 396Q404 389 391 381Q385
377 367 367T342 350Q328 336 328 302Q328 297 328 295Q332 257 329 211T309 127Q300 105 281 80T244 43Z" />
<glyph unicode="t" glyph-name="t" horiz-adv-x="342" d="M90 246Q56 218 8 174Q-10 158 -16 164T-2 188L147 322Q134 322 110 321T74 319Q51 319 51 330Q53 339 106 342Q133 344 164 344Q268 473 356 557Q440 641 485 641Q512 641 516 629Q469 584 391 496Q324
419 266 344Q313 346 383 346Q397 346 405 344T412 334Q410 324 381 324Q377 324 375 324Q297 324 250 322Q218 282 174 215T102 96Q92 78 91 62T100 37Q118 29 152 45Q192 65 244 106Q265 122 297 151T340 188Q363 208 369 203Q374 198 354 178Q295 119 229 70Q125
-14 41 -14Q8 -14 -7 2T-20 43Q-15 107 90 246Z" />
<glyph unicode="u" glyph-name="u" horiz-adv-x="659" d="M166 293Q142 283 78 231Q49 208 4 170Q-19 150 -27 154Q-33 160 -4 186Q58 245 141 301Q180 328 205 337T260 346Q292 346 296 340T283 313Q245 274 176 186Q116 107 100 76Q88 49 98 39Q111 26 145 43Q209
79 299 150L520 328Q551 350 580 350Q599 350 608 348T621 339T610 317Q597 302 577 278T538 232T502 186Q448 120 426 82Q406 47 420 37Q433 27 467 43Q507 63 559 104Q608 143 657 188Q680 211 686 203Q693 199 670 176Q630 138 545 70Q440 -12 369 -12Q305 -12
305 37Q305 74 338 121Q362 157 434 227L432 229L268 100Q194 44 143 16T49 -12Q16 -12 -1 3T-18 45Q-16 80 20 129Q87 219 166 293Z" />
<glyph unicode="v" glyph-name="v" horiz-adv-x="606" d="M455 92Q431 92 413 103T389 131Q350 106 303 82Q193 23 106 -4Q64 -18 37 -18Q8 -18 6 6Q4 20 25 43L125 162Q176 227 201 274Q211 296 201 303Q190 311 170 301Q145 290 90 246Q35 201 4 170Q-10 156
-16 162T-8 182Q24 216 100 279Q193 350 244 350Q274 350 289 333T301 279Q296 230 229 147Q179 83 113 23Q180 41 297 102Q365 140 387 158Q390 212 434 274Q492 359 532 350Q550 346 551 323T539 276Q490 198 408 143Q414 114 453 111Q499 108 551 143Q589 173
602 186Q625 211 633 203Q639 197 612 172Q596 156 563 131Q508 92 455 92Z" />
<glyph unicode="w" glyph-name="w" horiz-adv-x="874" d="M47 -14H45Q16 -14 3 3T-8 49Q-2 102 68 186Q116 245 188 307Q156 293 82 236Q53 212 0 166Q-26 143 -31 150Q-38 157 -4 186Q63 249 139 301Q179 329 205 337T272 346Q305 346 310 340T295 313Q213 231
172 182Q120 118 102 76Q93 50 102 41Q116 29 154 47Q195 67 274 131L481 303Q520 332 547 332Q578 332 585 327T578 299Q525 238 485 184Q431 108 418 80Q399 40 418 27Q432 17 475 31Q519 46 594 96Q631 122 653 147Q653 205 702 274Q760 359 801 350Q817 346
819 324T807 276Q762 205 678 135Q687 114 719 111Q764 108 821 147Q853 169 872 188Q893 209 899 203Q906 196 881 172Q863 156 829 131Q771 89 717 92Q676 92 662 121Q642 103 610 82Q474 -14 379 -14Q343 -14 325 2T307 45Q307 76 334 119Q354 152 408 213L406
215L252 88Q125 -14 47 -14Z" />
<glyph unicode="x" glyph-name="x" horiz-adv-x="583" d="M195 100Q165 55 124 22T41 -12Q2 -12 -19 6T-37 63Q-35 96 -11 121T43 147Q66 147 78 132T82 96Q78 86 62 72T43 45Q42 34 47 27T63 20Q86 20 114 42T161 90T211 158Q266 234 276 274Q286 313 252 319Q200
328 98 250Q52 215 4 170Q-26 144 -31 150Q-38 157 -6 184Q48 235 109 281Q196 350 272 350Q312 350 341 323T358 240H360Q457 350 522 350Q554 350 570 329T580 279Q575 255 556 239T514 223Q500 223 491 230T483 254Q484 262 493 273T504 293Q506 299 501 304T487
309Q461 309 410 260Q378 232 332 170Q291 118 281 78Q266 30 301 20Q329 14 375 34T467 90Q492 108 578 184Q591 199 598 190Q603 185 586 168Q515 102 477 74Q362 -12 285 -12Q235 -12 209 17T195 100Z" />
<glyph unicode="y" glyph-name="y" horiz-adv-x="645" d="M436 229L434 231Q363 172 268 100Q194 44 143 16T49 -12Q17 -12 0 3T-16 47Q-13 83 20 129Q85 215 166 293Q139 281 76 229Q43 204 4 170Q-19 150 -27 154Q-33 160 -4 186Q58 245 141 301Q180 328 205
337T260 346Q292 346 296 340T283 313Q245 274 176 186Q122 119 100 76Q88 49 98 39Q110 27 145 45Q217 85 299 150L520 328Q551 350 580 350Q608 350 615 345T608 319L487 160L217 -203Q94 -372 -13 -528T-145 -727Q-166 -761 -156 -768Q-145 -775 -125 -752Q-109
-735 25 -545L256 -229Q397 -51 518 70Q605 155 643 188Q649 195 658 201T672 203Q677 196 649 170L530 55Q392 -89 272 -242Q124 -438 29 -578Q17 -594 -8 -630T-47 -685T-79 -728T-114 -772T-145 -803Q-179 -831 -205 -829Q-244 -825 -244 -786Q-244 -748 -160
-612Q-57 -451 117 -211L436 229Z" />
<glyph unicode="z" glyph-name="z" horiz-adv-x="499" d="M102 74Q130 81 156 78Q232 71 254 8Q313 42 375 88Q438 135 500 190Q521 210 528 203Q534 197 502 168Q454 124 387 74Q321 25 258 -10Q262 -22 262 -41Q262 -108 204 -205T74 -382T-70 -524Q-208 -648
-359 -738T-596 -829Q-642 -829 -662 -809T-682 -758Q-682 -687 -600 -597T-365 -391Q-201 -269 35 -127L190 -31Q195 10 180 34T135 59Q68 59 -12 -16Q-29 -35 -37 -27Q-49 -14 -31 8Q-12 32 55 70Q90 88 154 118T256 170Q357 231 406 285Q417 296 414 303Q412
307 401 303Q362 281 308 265T217 248Q140 248 117 287Q56 219 8 174Q-8 160 -14 166Q-19 171 -2 188Q56 242 109 305Q103 336 129 369Q154 399 197 399Q231 399 231 379Q204 366 199 346Q195 331 207 318T256 305Q344 305 422 340Q455 352 463 342Q470 335 464
320T451 295Q397 222 274 156Q236 136 180 111T102 74ZM-588 -807H-586Q-507 -807 -379 -713T-125 -485Q-29 -387 69 -256T186 -53L45 -143Q-214 -307 -352 -412Q-477 -506 -551 -594T-633 -752Q-637 -807 -588 -807Z" />
<glyph unicode="{" glyph-name="braceleft" horiz-adv-x="604" d="M1137 948L1124 932Q1114 932 1087 933T1042 934Q958 934 903 917T807 856Q772 817 734 747T652 607T549 485Q483 426 365 422Q392 394 394 346T360 242Q327 196 264 117T180 8Q101 -113 246 -152Q281
-162 336 -166L324 -178Q269 -178 223 -168Q175 -158 146 -137T106 -83T113 -3T174 102Q185 117 216 156T275 233T322 301Q344 337 342 365T325 411T285 434V436Q332 436 393 454T487 504Q526 543 556 586T621 688T668 766Q726 860 805 906T1022 952L1137 948Z"
/>
<glyph unicode="|" glyph-name="bar" horiz-adv-x="294" d="M168 1536V-512H127V1536H168Z" />
<glyph unicode="}" glyph-name="braceright" horiz-adv-x="604" d="M518 938L528 948Q594 948 629 940Q695 926 726 894T747 804T678 668Q673 661 617 592T535 481Q505 428 519 396T575 356V354Q527 360 466 335T367 268Q338 237 310 199T265 136T223 67T186 6Q126
-89 48 -134T-168 -180L-285 -176L-272 -162H-190Q-23 -162 45 -84Q80 -45 118 25T200 165T303 287Q344 322 401 344T506 369Q485 383 473 406T464 464T492 530Q513 557 580 642T672 764Q749 882 608 924Q570 934 518 938Z" />
<glyph unicode="~" glyph-name="asciitilde" horiz-adv-x="628" d="M463 438H465Q545 438 583 402T631 313Q634 301 627 301Q625 301 622 306Q620 310 618 313Q582 371 459 371Q422 371 340 348T213 324Q142 324 109 389Q103 400 109 406Q114 408 119 397Q140
367 184 367Q233 367 325 402T463 438Z" />
</font>
</defs>
</svg>
